<?xml version="1.0" encoding="UTF-8" standalone="no"?>
<!DOCTYPE svg PUBLIC "-//W3C//DTD SVG 1.1//EN" "http://www.w3.org/Graphics/SVG/1.1/DTD/svg11.dtd">
<svg width="100%" height="100%" viewBox="0 0 251 251" version="1.1" xmlns="http://www.w3.org/2000/svg" xmlns:xlink="http://www.w3.org/1999/xlink" xml:space="preserve" xmlns:serif="http://www.serif.com/" style="fill-rule:evenodd;clip-rule:evenodd;stroke-linejoin:round;stroke-miterlimit:2;">
    <g transform="matrix(1,0,0,1,-4707.51,-425.236)">
        <g transform="matrix(1,0,0,1,-0.45266,3316.76)">
            <g transform="matrix(1.42452,0,0,1.42452,-1259.72,-3597.71)">
                <rect x="4189.26" y="495.732" width="175.74" height="175.74" style="fill:rgb(10,46,210);"/>
            </g>
        </g>
        <g transform="matrix(1,0,0,1,-0.45266,3316.76)">
            <g transform="matrix(2.18079,0,0,2.18079,2536.69,-3479.52)">
                <path d="M1045.1,313.856C1045.1,315.126 1044.88,316.306 1044.44,317.396C1044,318.487 1043.39,319.431 1042.6,320.229C1041.81,321.026 1040.87,321.649 1039.78,322.096C1038.69,322.544 1037.5,322.768 1036.22,322.768L1012.95,322.768L1012.95,316.42L1036.22,316.42C1037,316.42 1037.61,316.196 1038.05,315.749C1038.49,315.301 1038.71,314.67 1038.71,313.856L1038.71,287.758L1045.1,287.758L1045.1,313.856Z" style="fill:white;fill-rule:nonzero;stroke:white;stroke-width:2.87px;"/>
            </g>
        </g>
        <g transform="matrix(1,0,0,1,-0.45266,3316.76)">
            <g transform="matrix(2.18079,0,0,2.18079,2558.5,-3479.52)">
                <path d="M1087.41,287.758L1070.84,321.522C1070.58,322.043 1070.19,322.462 1069.67,322.78C1069.16,323.097 1068.6,323.256 1067.98,323.256C1067.38,323.256 1066.82,323.097 1066.31,322.78C1065.79,322.462 1065.4,322.043 1065.12,321.522L1048.57,287.758L1055.67,287.758L1067.98,312.978L1080.33,287.758L1087.41,287.758Z" style="fill:white;fill-rule:nonzero;stroke:white;stroke-width:2.87px;"/>
            </g>
        </g>
        <g transform="matrix(1,0,0,1,-0.45266,3316.76)">
            <g transform="matrix(2.18079,0,0,2.18079,2535.84,-3494.72)">
                <path d="M1049.79,372.768L1043.39,372.768L1043.39,351.918L1032.14,371.718C1031.86,372.222 1031.47,372.605 1030.98,372.865C1030.48,373.126 1029.95,373.256 1029.38,373.256C1028.83,373.256 1028.31,373.126 1027.83,372.865C1027.35,372.605 1026.97,372.222 1026.69,371.718L1015.39,351.918L1015.39,372.768L1009.04,372.768L1009.04,340.468C1009.04,339.735 1009.26,339.084 1009.69,338.515C1010.12,337.945 1010.69,337.563 1011.39,337.367C1011.73,337.286 1012.07,337.257 1012.41,337.282C1012.75,337.306 1013.08,337.379 1013.4,337.501C1013.72,337.624 1014.01,337.794 1014.27,338.014C1014.53,338.234 1014.75,338.498 1014.93,338.808L1029.38,363.93L1043.83,338.808C1044.21,338.189 1044.72,337.75 1045.38,337.489C1046.04,337.229 1046.73,337.188 1047.45,337.367C1048.13,337.563 1048.69,337.945 1049.13,338.515C1049.57,339.084 1049.79,339.735 1049.79,340.468L1049.79,372.768Z" style="fill:white;fill-rule:nonzero;stroke:white;stroke-width:2.87px;"/>
            </g>
        </g>
        <g transform="matrix(1,0,0,1,-0.45266,3316.76)">
            <g transform="matrix(2.18079,0,0,2.18079,2544.07,-3494.72)">
                <path d="M1092.1,365.077C1092.1,365.858 1091.96,366.697 1091.7,367.592C1091.43,368.487 1090.99,369.317 1090.38,370.082C1089.77,370.847 1088.97,371.486 1088,371.999C1087.02,372.511 1085.83,372.768 1084.41,372.768L1060.31,372.768C1059.86,372.768 1059.43,372.686 1059.04,372.523C1058.65,372.361 1058.32,372.137 1058.03,371.852C1057.75,371.567 1057.52,371.23 1057.36,370.839C1057.2,370.448 1057.11,370.025 1057.11,369.569L1057.11,340.956C1057.11,340.517 1057.2,340.102 1057.36,339.711C1057.52,339.32 1057.75,338.979 1058.03,338.686C1058.32,338.393 1058.65,338.165 1059.04,338.002C1059.43,337.839 1059.86,337.758 1060.31,337.758L1081.55,337.758C1082.33,337.758 1083.17,337.896 1084.07,338.173C1084.96,338.45 1085.8,338.893 1086.57,339.503C1087.34,340.114 1087.99,340.907 1088.5,341.884C1089.01,342.86 1089.27,344.057 1089.27,345.473L1089.27,346.669C1089.27,347.792 1089.08,349.001 1088.71,350.294C1088.33,351.588 1087.73,352.813 1086.9,353.969C1087.62,354.408 1088.29,354.937 1088.91,355.556C1089.54,356.174 1090.09,356.89 1090.56,357.704C1091.03,358.518 1091.41,359.438 1091.68,360.463C1091.96,361.488 1092.1,362.619 1092.1,363.856L1092.1,365.077ZM1085.75,363.856C1085.75,363.026 1085.62,362.282 1085.36,361.623C1085.1,360.963 1084.74,360.398 1084.26,359.926C1083.79,359.454 1083.22,359.092 1082.55,358.839C1081.89,358.587 1081.14,358.461 1080.31,358.461L1066,358.461L1066,352.064L1077.45,352.064C1078.28,352.064 1079.03,351.938 1079.7,351.686C1080.37,351.434 1080.93,351.072 1081.41,350.6C1081.88,350.128 1082.24,349.562 1082.49,348.903C1082.75,348.244 1082.87,347.499 1082.87,346.669L1082.87,345.473C1082.87,344.561 1082.43,344.105 1081.55,344.105L1063.46,344.105L1063.46,366.42L1084.41,366.42C1084.52,366.42 1084.66,366.412 1084.82,366.396C1084.99,366.379 1085.13,366.33 1085.26,366.249C1085.39,366.168 1085.51,366.029 1085.61,365.834C1085.7,365.639 1085.75,365.37 1085.75,365.028L1085.75,363.856Z" style="fill:white;fill-rule:nonzero;stroke:white;stroke-width:2.87px;"/>
            </g>
        </g>
    </g>
</svg>
