<?xml version="1.0" encoding="UTF-8" standalone="no"?>
<!DOCTYPE svg PUBLIC "-//W3C//DTD SVG 1.1//EN" "http://www.w3.org/Graphics/SVG/1.1/DTD/svg11.dtd">
<svg width="100%" height="100%" viewBox="0 0 435 384" version="1.1" xmlns="http://www.w3.org/2000/svg" xmlns:xlink="http://www.w3.org/1999/xlink" xml:space="preserve" xmlns:serif="http://www.serif.com/" style="fill-rule:evenodd;clip-rule:evenodd;stroke-linecap:round;stroke-linejoin:round;stroke-miterlimit:1.5;">
    <g transform="matrix(1,0,0,1,-1018.74,-92.9968)">
        <g>
            <path d="M1118.05,195.797C1125.78,138.856 1178.42,94.747 1242.13,94.747C1311.15,94.747 1367.18,146.523 1367.18,210.297C1367.18,213.862 1367.01,217.389 1366.66,220.868C1414.46,227.775 1451,264.802 1451,309.384C1451,358.876 1405.97,399.057 1350.5,399.057C1301.21,399.057 1260.15,397.323 1251.63,355.517C1248.49,355.736 1245.32,355.847 1242.13,355.847C1234.66,355.847 1227.34,355.24 1220.23,354.078C1208.5,397.263 1169,399.057 1122.13,399.057C1066.04,399.057 1020.49,353.5 1020.49,297.387C1020.49,242.642 1063.84,197.946 1118.05,195.797Z" style="fill:rgb(217,217,217);stroke:white;stroke-width:3.5px;"/>
            <ellipse cx="1232.48" cy="448.377" rx="5.7" ry="5.218" style="fill:none;stroke:white;stroke-width:3.5px;"/>
            <g transform="matrix(1,0,0,1,3.03273,0)">
                <path d="M1209.01,458.583L1128.32,458.583L1128.32,339.531L1337.11,339.531L1337.11,458.583L1255.67,458.583C1255.76,459.09 1255.8,459.604 1255.8,460.125C1255.8,468.213 1245.29,474.78 1232.34,474.78C1219.39,474.78 1208.88,468.213 1208.88,460.125C1208.88,459.604 1208.93,459.09 1209.01,458.583Z" style="fill:rgb(1,0,90);stroke:white;stroke-width:3.5px;"/>
            </g>
            <path d="M1201.32,315.09L1146.82,315.09L1146.82,434.483L1200.3,434.483C1201.96,434.5 1217.28,435.12 1231.39,451.855C1235.31,456.498 1238.1,453.902 1239.77,451.662C1245.62,443.811 1252.06,434.483 1267.01,434.483L1324.68,434.483L1324.68,315.09L1268.19,315.09C1253.23,315.09 1250.46,317.847 1240.95,333.27C1237.94,338.142 1236.87,338.749 1232.57,333.463C1217.76,315.247 1201.32,315.09 1201.32,315.09Z" style="fill:rgb(209,0,202);stroke:white;stroke-width:3.5px;"/>
            <g transform="matrix(1,0,0,1,2.82966,0)">
                <path d="M1249.7,229.94L1272.69,229.94L1233.21,300L1193.15,229.94L1216.13,229.94L1216.13,178.921L1249.7,178.921L1249.7,229.94Z" style="fill:rgb(209,0,202);stroke:white;stroke-width:3.5px;"/>
            </g>
        </g>
    </g>
</svg>
