<?xml version="1.0" encoding="UTF-8" standalone="no"?>
<!DOCTYPE svg PUBLIC "-//W3C//DTD SVG 1.1//EN" "http://www.w3.org/Graphics/SVG/1.1/DTD/svg11.dtd">
<svg width="100%" height="100%" viewBox="0 0 839 187" version="1.1" xmlns="http://www.w3.org/2000/svg" xmlns:xlink="http://www.w3.org/1999/xlink" xml:space="preserve" xmlns:serif="http://www.serif.com/" style="fill-rule:evenodd;clip-rule:evenodd;stroke-linejoin:round;stroke-miterlimit:2;">
    <g transform="matrix(1,0,0,1,-3750.94,-268.278)">
        <g transform="matrix(1,0,0,1,-0.45266,3316.76)">
            <g transform="matrix(1,0,0,1,1763.03,-3201.58)">
                <path d="M2823.62,161.39L2058.36,161.39L1988.36,339.931L2761.62,339.931L2823.62,161.39Z" style="fill:rgb(10,46,210);"/>
            </g>
        </g>
        <g transform="matrix(1,0,0,1,-0.45266,3316.76)">
            <g transform="matrix(-1,0,0,-1,6645.1,-2881.56)">
                <path d="M2823.62,161.39L2057.36,161.39L2055.45,166.362L2821.46,166.93L2823.62,161.39Z" style="fill:url(#_Linear1);"/>
            </g>
        </g>
        <g transform="matrix(1,0,0,1,-0.45266,3316.76)">
            <g transform="matrix(1,0,0,1,1759.03,-3475.99)">
                <g transform="matrix(2.46919,0,-0.898713,2.46919,-132.306,-249.724)">
                    <path d="M1038.49,313.856C1038.49,315.126 1038.27,316.306 1037.83,317.396C1037.39,318.487 1036.77,319.431 1035.98,320.229C1035.19,321.026 1034.26,321.649 1033.16,322.096C1032.07,322.544 1030.88,322.768 1029.6,322.768L1006.33,322.768L1006.33,316.42L1029.6,316.42C1030.38,316.42 1030.99,316.196 1031.43,315.749C1031.87,315.301 1032.09,314.67 1032.09,313.856L1032.09,287.758L1038.49,287.758L1038.49,313.856Z" style="fill:white;fill-rule:nonzero;"/>
                    <path d="M1080.8,287.758L1064.22,321.522C1063.96,322.043 1063.57,322.462 1063.06,322.78C1062.55,323.097 1061.98,323.256 1061.36,323.256C1060.76,323.256 1060.2,323.097 1059.69,322.78C1059.18,322.462 1058.78,322.043 1058.51,321.522L1041.95,287.758L1049.06,287.758L1061.36,312.978L1073.72,287.758L1080.8,287.758Z" style="fill:white;fill-rule:nonzero;"/>
                    <path d="M1125.13,322.768L1118.74,322.768L1118.74,301.918L1107.48,321.718C1107.2,322.222 1106.82,322.605 1106.32,322.865C1105.82,323.126 1105.29,323.256 1104.72,323.256C1104.17,323.256 1103.65,323.126 1103.17,322.865C1102.69,322.605 1102.31,322.222 1102.04,321.718L1090.73,301.918L1090.73,322.768L1084.38,322.768L1084.38,290.468C1084.38,289.735 1084.6,289.084 1085.03,288.515C1085.46,287.945 1086.03,287.563 1086.73,287.367C1087.07,287.286 1087.41,287.257 1087.75,287.282C1088.1,287.306 1088.42,287.379 1088.74,287.501C1089.06,287.624 1089.35,287.794 1089.61,288.014C1089.87,288.234 1090.09,288.498 1090.27,288.808L1104.72,313.93L1119.17,288.808C1119.55,288.189 1120.07,287.75 1120.73,287.489C1121.38,287.229 1122.07,287.188 1122.79,287.367C1123.47,287.563 1124.03,287.945 1124.47,288.515C1124.91,289.084 1125.13,289.735 1125.13,290.468L1125.13,322.768Z" style="fill:white;fill-rule:nonzero;"/>
                    <path d="M1160.02,305.116C1160.02,305.995 1159.87,306.943 1159.56,307.96C1159.25,308.978 1158.75,309.922 1158.05,310.792C1157.36,311.663 1156.46,312.392 1155.34,312.978C1154.23,313.563 1152.87,313.856 1151.28,313.856L1139.83,313.856L1139.83,307.826L1151.28,307.826C1152.14,307.826 1152.81,307.562 1153.28,307.033C1153.75,306.504 1153.99,305.849 1153.99,305.067C1153.99,304.237 1153.73,303.586 1153.2,303.114C1152.67,302.642 1152.03,302.406 1151.28,302.406L1139.83,302.406C1138.97,302.406 1138.3,302.671 1137.83,303.2C1137.36,303.729 1137.12,304.384 1137.12,305.165L1137.12,314.027C1137.12,314.874 1137.38,315.533 1137.91,316.005C1138.44,316.477 1139.1,316.713 1139.88,316.713L1151.28,316.713L1151.28,322.768L1139.83,322.768C1138.95,322.768 1138,322.613 1136.99,322.304C1135.97,321.994 1135.02,321.494 1134.15,320.802C1133.28,320.111 1132.55,319.207 1131.97,318.092C1131.38,316.977 1131.09,315.622 1131.09,314.027L1131.09,305.116C1131.09,304.237 1131.24,303.289 1131.55,302.272C1131.86,301.255 1132.36,300.311 1133.05,299.44C1133.75,298.569 1134.65,297.841 1135.76,297.255C1136.88,296.669 1138.23,296.376 1139.83,296.376L1151.28,296.376C1152.16,296.376 1153.11,296.531 1154.12,296.84C1155.14,297.149 1156.09,297.65 1156.96,298.341C1157.83,299.033 1158.56,299.936 1159.14,301.051C1159.73,302.166 1160.02,303.521 1160.02,305.116Z" style="fill:white;fill-rule:nonzero;"/>
                    <path d="M1193.25,313.856C1193.25,314.947 1193.11,315.928 1192.83,316.798C1192.56,317.669 1192.19,318.434 1191.73,319.093C1191.28,319.752 1190.75,320.314 1190.15,320.778C1189.54,321.242 1188.91,321.62 1188.25,321.913C1187.6,322.206 1186.93,322.422 1186.25,322.56C1185.58,322.698 1184.94,322.768 1184.34,322.768L1172.89,322.768C1171.8,322.768 1170.82,322.629 1169.96,322.353C1169.09,322.076 1168.33,321.706 1167.67,321.242C1167.01,320.778 1166.45,320.245 1165.99,319.643C1165.53,319.04 1165.15,318.41 1164.85,317.751C1164.56,317.091 1164.35,316.424 1164.21,315.749C1164.07,315.073 1164,314.442 1164,313.856L1164,305.263C1164,303.635 1164.3,302.256 1164.89,301.125C1165.48,299.993 1166.23,299.074 1167.11,298.366C1168,297.658 1168.96,297.149 1170.01,296.84C1171.05,296.531 1172.01,296.376 1172.89,296.376L1184.34,296.376L1184.34,302.724L1172.93,302.724C1172.09,302.724 1171.44,302.939 1171.01,303.371C1170.57,303.802 1170.35,304.433 1170.35,305.263L1170.35,313.808C1170.35,314.67 1170.56,315.321 1170.99,315.761C1171.42,316.2 1172.06,316.42 1172.89,316.42L1184.34,316.42C1185.2,316.42 1185.84,316.2 1186.27,315.761C1186.69,315.321 1186.9,314.687 1186.9,313.856L1186.9,285.219L1193.25,285.219L1193.25,313.856Z" style="fill:white;fill-rule:nonzero;"/>
                    <path d="M1205.75,290.956L1199.4,290.956L1199.4,285.219L1205.75,285.219L1205.75,290.956ZM1205.75,322.768L1199.4,322.768L1199.4,296.376L1205.75,296.376L1205.75,322.768Z" style="fill:white;fill-rule:nonzero;"/>
                    <path d="M1239.07,314.027C1239.07,314.906 1238.92,315.854 1238.61,316.872C1238.3,317.889 1237.8,318.833 1237.11,319.704C1236.41,320.574 1235.51,321.303 1234.4,321.889C1233.28,322.475 1231.93,322.768 1230.33,322.768L1218.88,322.768C1218,322.768 1217.06,322.613 1216.04,322.304C1215.02,321.994 1214.08,321.494 1213.21,320.802C1212.34,320.111 1211.61,319.207 1211.02,318.092C1210.43,316.977 1210.14,315.622 1210.14,314.027C1210.14,313.148 1210.3,312.196 1210.61,311.171C1210.91,310.146 1211.41,309.197 1212.11,308.327C1212.8,307.456 1213.7,306.728 1214.82,306.142C1215.93,305.556 1217.29,305.263 1218.88,305.263L1230.33,305.263L1230.33,311.317L1218.88,311.317C1218.02,311.317 1217.35,311.582 1216.88,312.111C1216.41,312.64 1216.17,313.295 1216.17,314.076C1216.17,314.906 1216.44,315.553 1216.99,316.017C1217.54,316.481 1218.18,316.713 1218.93,316.713L1230.33,316.713C1231.19,316.713 1231.86,316.452 1232.33,315.932C1232.81,315.411 1233.04,314.76 1233.04,313.979L1233.04,305.116C1233.04,304.286 1232.79,303.627 1232.27,303.139C1231.76,302.65 1231.11,302.406 1230.33,302.406L1216.39,302.406L1216.39,296.376L1230.33,296.376C1231.21,296.376 1232.16,296.531 1233.18,296.84C1234.19,297.149 1235.14,297.65 1236.01,298.341C1236.88,299.033 1237.61,299.936 1238.19,301.051C1238.78,302.166 1239.07,303.521 1239.07,305.116L1239.07,314.027Z" style="fill:white;fill-rule:nonzero;"/>
                    <path d="M1280.14,315.077C1280.14,315.858 1280,316.697 1279.73,317.592C1279.46,318.487 1279.03,319.317 1278.42,320.082C1277.81,320.847 1277.01,321.486 1276.04,321.999C1275.06,322.511 1273.86,322.768 1272.45,322.768L1248.35,322.768C1247.89,322.768 1247.47,322.686 1247.08,322.523C1246.69,322.361 1246.35,322.137 1246.07,321.852C1245.78,321.567 1245.56,321.23 1245.4,320.839C1245.23,320.448 1245.15,320.025 1245.15,319.569L1245.15,290.956C1245.15,290.517 1245.23,290.102 1245.4,289.711C1245.56,289.32 1245.78,288.979 1246.07,288.686C1246.35,288.393 1246.69,288.165 1247.08,288.002C1247.47,287.839 1247.89,287.758 1248.35,287.758L1269.59,287.758C1270.37,287.758 1271.21,287.896 1272.11,288.173C1273,288.45 1273.83,288.893 1274.61,289.503C1275.38,290.114 1276.02,290.907 1276.54,291.884C1277.05,292.86 1277.31,294.057 1277.31,295.473L1277.31,296.669C1277.31,297.792 1277.12,299.001 1276.74,300.294C1276.37,301.588 1275.77,302.813 1274.94,303.969C1275.65,304.408 1276.32,304.937 1276.95,305.556C1277.58,306.174 1278.13,306.89 1278.6,307.704C1279.07,308.518 1279.44,309.438 1279.72,310.463C1280,311.488 1280.14,312.619 1280.14,313.856L1280.14,315.077ZM1273.79,313.856C1273.79,313.026 1273.66,312.282 1273.4,311.623C1273.14,310.963 1272.77,310.398 1272.3,309.926C1271.83,309.454 1271.26,309.092 1270.59,308.839C1269.92,308.587 1269.17,308.461 1268.35,308.461L1254.04,308.461L1254.04,302.064L1265.49,302.064C1266.32,302.064 1267.07,301.938 1267.73,301.686C1268.4,301.434 1268.97,301.072 1269.44,300.6C1269.91,300.128 1270.28,299.562 1270.53,298.903C1270.78,298.244 1270.91,297.499 1270.91,296.669L1270.91,295.473C1270.91,294.561 1270.47,294.105 1269.59,294.105L1251.5,294.105L1251.5,316.42L1272.45,316.42C1272.56,316.42 1272.7,316.412 1272.86,316.396C1273.02,316.379 1273.17,316.33 1273.3,316.249C1273.43,316.168 1273.55,316.029 1273.64,315.834C1273.74,315.639 1273.79,315.37 1273.79,315.028L1273.79,313.856Z" style="fill:white;fill-rule:nonzero;"/>
                </g>
                <g transform="matrix(0.815391,0,0,0.815391,971.283,-156.898)">
                    <path d="M1535.43,922.76C1542.78,922.76 1547.93,918.86 1547.93,912.31L1547.93,912.21C1547.93,906.41 1544.13,903.76 1536.73,901.96C1529.98,900.36 1528.38,899.16 1528.38,896.46L1528.38,896.36C1528.38,894.06 1530.48,892.21 1534.08,892.21C1537.28,892.21 1540.43,893.46 1543.58,895.81L1546.88,891.16C1543.33,888.31 1539.28,886.76 1534.18,886.76C1527.23,886.76 1522.23,890.91 1522.23,896.91L1522.23,897.01C1522.23,903.46 1526.43,905.66 1533.88,907.46C1540.38,908.96 1541.78,910.31 1541.78,912.81L1541.78,912.91C1541.78,915.51 1539.38,917.31 1535.58,917.31C1531.28,917.31 1527.88,915.66 1524.53,912.76L1520.83,917.16C1525.03,920.91 1530.08,922.76 1535.43,922.76Z" style="fill:white;fill-rule:nonzero;"/>
                    <path d="M1567.03,922.86C1575.18,922.86 1581.18,916.61 1581.18,909.11L1581.18,909.01C1581.18,901.46 1575.23,895.31 1567.13,895.31C1559.03,895.31 1553.03,901.56 1553.03,909.11L1553.03,909.21C1553.03,916.71 1558.98,922.86 1567.03,922.86ZM1567.13,917.56C1562.43,917.56 1559.08,913.71 1559.08,909.11L1559.08,909.01C1559.08,904.41 1562.18,900.61 1567.03,900.61C1571.78,900.61 1575.13,904.46 1575.13,909.11L1575.13,909.21C1575.13,913.76 1572.03,917.56 1567.13,917.56Z" style="fill:white;fill-rule:nonzero;"/>
                    <path d="M1588.68,922.26L1594.73,922.26L1594.73,901.06L1601.63,901.06L1601.63,896.06L1594.63,896.06L1594.63,894.61C1594.63,891.86 1595.83,890.61 1598.13,890.61C1599.43,890.61 1600.48,890.86 1601.68,891.26L1601.68,886.16C1600.33,885.76 1598.88,885.46 1596.78,885.46C1594.18,885.46 1592.23,886.16 1590.83,887.56C1589.43,888.96 1588.68,891.16 1588.68,894.06L1588.68,896.01L1585.33,896.01L1585.33,901.06L1588.68,901.06L1588.68,922.26Z" style="fill:white;fill-rule:nonzero;"/>
                    <path d="M1614.98,922.71C1617.28,922.71 1618.93,922.21 1620.43,921.36L1620.43,916.41C1619.23,917.01 1618.03,917.31 1616.68,917.31C1614.63,917.31 1613.43,916.36 1613.43,914.01L1613.43,901.06L1620.53,901.06L1620.53,895.86L1613.43,895.86L1613.43,888.61L1607.38,888.61L1607.38,895.86L1604.03,895.86L1604.03,901.06L1607.38,901.06L1607.38,914.96C1607.38,920.76 1610.53,922.71 1614.98,922.71Z" style="fill:white;fill-rule:nonzero;"/>
                    <path d="M1633.03,922.46L1638.43,922.46L1644.38,904.41L1650.28,922.46L1655.73,922.46L1664.38,895.86L1658.28,895.86L1652.88,913.96L1647.03,895.76L1641.83,895.76L1635.98,913.96L1630.68,895.86L1624.48,895.86L1633.03,922.46Z" style="fill:white;fill-rule:nonzero;"/>
                    <path d="M1676.33,922.81C1680.38,922.81 1683.13,921.11 1684.93,918.96L1684.93,922.26L1690.83,922.26L1690.83,906.61C1690.83,903.16 1689.93,900.36 1687.98,898.46C1686.13,896.56 1683.18,895.51 1679.23,895.51C1675.03,895.51 1672.18,896.36 1669.28,897.66L1670.88,902.41C1673.28,901.41 1675.48,900.76 1678.43,900.76C1682.68,900.76 1684.98,902.76 1684.98,906.51L1684.98,907.16C1682.93,906.51 1680.83,906.06 1677.88,906.06C1671.43,906.06 1666.98,908.86 1666.98,914.56L1666.98,914.66C1666.98,919.96 1671.38,922.81 1676.33,922.81ZM1678.03,918.41C1675.13,918.41 1672.88,916.96 1672.88,914.41L1672.88,914.31C1672.88,911.56 1675.18,909.91 1679.08,909.91C1681.48,909.91 1683.53,910.36 1685.08,910.96L1685.08,912.76C1685.08,916.11 1682.03,918.41 1678.03,918.41Z" style="fill:white;fill-rule:nonzero;"/>
                    <path d="M1698.08,922.26L1704.13,922.26L1704.13,912.21C1704.13,905.21 1707.83,901.76 1713.13,901.76L1713.48,901.76L1713.48,895.36C1708.83,895.16 1705.78,897.86 1704.13,901.81L1704.13,895.86L1698.08,895.86L1698.08,922.26Z" style="fill:white;fill-rule:nonzero;"/>
                    <path d="M1729.93,922.86C1734.78,922.86 1738.23,920.91 1740.73,917.91L1737.18,914.76C1735.08,916.81 1732.98,917.91 1730.03,917.91C1726.13,917.91 1723.08,915.51 1722.43,911.21L1741.83,911.21C1741.88,910.61 1741.93,910.06 1741.93,909.51C1741.93,901.91 1737.68,895.31 1729.28,895.31C1721.73,895.31 1716.38,901.51 1716.38,909.06L1716.38,909.16C1716.38,917.31 1722.28,922.86 1729.93,922.86ZM1722.38,907.21C1722.93,903.11 1725.53,900.26 1729.23,900.26C1733.23,900.26 1735.53,903.31 1735.93,907.21L1722.38,907.21Z" style="fill:white;fill-rule:nonzero;"/>
                    <path d="M1763.73,922.26L1789.93,922.26L1789.93,916.76L1769.88,916.76L1769.88,907.36L1787.43,907.36L1787.43,901.86L1769.88,901.86L1769.88,892.76L1789.68,892.76L1789.68,887.26L1763.73,887.26L1763.73,922.26Z" style="fill:white;fill-rule:nonzero;"/>
                    <path d="M1806.93,922.81C1811.23,922.81 1813.98,920.61 1815.93,917.86L1815.93,922.26L1821.98,922.26L1821.98,885.76L1815.93,885.76L1815.93,899.96C1814.03,897.46 1811.28,895.31 1806.93,895.31C1800.63,895.31 1794.68,900.26 1794.68,909.01L1794.68,909.11C1794.68,917.86 1800.73,922.81 1806.93,922.81ZM1808.38,917.56C1804.28,917.56 1800.78,914.21 1800.78,909.11L1800.78,909.01C1800.78,903.76 1804.23,900.56 1808.38,900.56C1812.43,900.56 1816.03,903.91 1816.03,909.01L1816.03,909.11C1816.03,914.16 1812.43,917.56 1808.38,917.56Z" style="fill:white;fill-rule:nonzero;"/>
                    <path d="M1838.68,922.81C1842.78,922.81 1845.23,920.66 1846.93,918.16L1846.93,922.26L1853.03,922.26L1853.03,895.86L1846.93,895.86L1846.93,910.76C1846.93,914.86 1844.48,917.26 1840.98,917.26C1837.38,917.26 1835.33,914.96 1835.33,910.86L1835.33,895.86L1829.28,895.86L1829.28,912.66C1829.28,918.81 1832.73,922.81 1838.68,922.81Z" style="fill:white;fill-rule:nonzero;"/>
                    <path d="M1872.78,922.86C1877.93,922.86 1880.98,920.81 1883.58,917.91L1879.93,914.31C1878.03,916.26 1875.93,917.56 1873.08,917.56C1868.43,917.56 1865.18,913.81 1865.18,909.11L1865.18,909.01C1865.18,904.41 1868.43,900.61 1872.83,900.61C1875.83,900.61 1877.78,901.96 1879.63,903.91L1883.43,899.86C1880.93,897.16 1877.83,895.31 1872.88,895.31C1864.93,895.31 1859.13,901.61 1859.13,909.11L1859.13,909.21C1859.13,916.71 1864.93,922.86 1872.78,922.86Z" style="fill:white;fill-rule:nonzero;"/>
                    <path d="M1896.73,922.81C1900.78,922.81 1903.53,921.11 1905.33,918.96L1905.33,922.26L1911.23,922.26L1911.23,906.61C1911.23,903.16 1910.33,900.36 1908.38,898.46C1906.53,896.56 1903.58,895.51 1899.63,895.51C1895.43,895.51 1892.58,896.36 1889.68,897.66L1891.28,902.41C1893.68,901.41 1895.88,900.76 1898.83,900.76C1903.08,900.76 1905.38,902.76 1905.38,906.51L1905.38,907.16C1903.33,906.51 1901.23,906.06 1898.28,906.06C1891.83,906.06 1887.38,908.86 1887.38,914.56L1887.38,914.66C1887.38,919.96 1891.78,922.81 1896.73,922.81ZM1898.43,918.41C1895.53,918.41 1893.28,916.96 1893.28,914.41L1893.28,914.31C1893.28,911.56 1895.58,909.91 1899.48,909.91C1901.88,909.91 1903.93,910.36 1905.48,910.96L1905.48,912.76C1905.48,916.11 1902.43,918.41 1898.43,918.41Z" style="fill:white;fill-rule:nonzero;"/>
                    <path d="M1927.08,922.71C1929.38,922.71 1931.03,922.21 1932.53,921.36L1932.53,916.41C1931.33,917.01 1930.13,917.31 1928.78,917.31C1926.73,917.31 1925.53,916.36 1925.53,914.01L1925.53,901.06L1932.63,901.06L1932.63,895.86L1925.53,895.86L1925.53,888.61L1919.48,888.61L1919.48,895.86L1916.13,895.86L1916.13,901.06L1919.48,901.06L1919.48,914.96C1919.48,920.76 1922.63,922.71 1927.08,922.71Z" style="fill:white;fill-rule:nonzero;"/>
                    <path d="M1938.88,891.81L1945.38,891.81L1945.38,886.06L1938.88,886.06L1938.88,891.81ZM1939.13,922.26L1945.18,922.26L1945.18,895.86L1939.13,895.86L1939.13,922.26Z" style="fill:white;fill-rule:nonzero;"/>
                    <path d="M1961.43,922.46L1966.88,922.46L1977.68,895.86L1971.33,895.86L1964.18,915.26L1957.08,895.86L1950.58,895.86L1961.43,922.46Z" style="fill:white;fill-rule:nonzero;"/>
                    <path d="M1993.88,922.86C2002.03,922.86 2008.03,916.61 2008.03,909.11L2008.03,909.01C2008.03,901.46 2002.08,895.31 1993.98,895.31C1985.88,895.31 1979.88,901.56 1979.88,909.11L1979.88,909.21C1979.88,916.71 1985.83,922.86 1993.88,922.86ZM1993.98,917.56C1989.28,917.56 1985.93,913.71 1985.93,909.11L1985.93,909.01C1985.93,904.41 1989.03,900.61 1993.88,900.61C1998.63,900.61 2001.98,904.46 2001.98,909.11L2001.98,909.21C2001.98,913.76 1998.88,917.56 1993.98,917.56Z" style="fill:white;fill-rule:nonzero;"/>
                </g>
            </g>
        </g>
    </g>
    <defs>
        <linearGradient id="_Linear1" x1="0" y1="0" x2="1" y2="0" gradientUnits="userSpaceOnUse" gradientTransform="matrix(-273.595,30.6654,-30.6654,-273.595,2647.24,166.93)"><stop offset="0" style="stop-color:rgb(118,10,210);stop-opacity:1"/><stop offset="0.23" style="stop-color:rgb(79,47,243);stop-opacity:1"/><stop offset="0.45" style="stop-color:rgb(66,60,255);stop-opacity:1"/><stop offset="0.74" style="stop-color:rgb(66,91,246);stop-opacity:1"/><stop offset="1" style="stop-color:rgb(66,193,214);stop-opacity:1"/></linearGradient>
    </defs>
</svg>
